#!OML:ASF H:\Punching\Project 1\Capture day 1\Session 1\female.ASF
:FULLY-SPECIFIED
:DEGREES
1374
root 1.90609 13.875 -0.808868 17.1817 2.6849 2.37084
lowerback -5.64033 -3.68838 -5.1342
upperback -9.1085 -4.78282 2.19662
thorax -5.78163 -2.0043 5.12195
lowerneck -11.3806 8.16851 13.6204
upperneck 32.3812 13.6245 -14.3048
head 15.2626 5.89386 -6.03506
rclavicle -2.41772e-014 1.35174e-014
rhumerus 6.38179 16.9655 -63.6134
rradius 133.69
rwrist -18.0841
rhand -29.7161 6.69576
rfingers 7.12502
rthumb -3.04329 -23.2623
lclavicle -2.41772e-014 1.35174e-014
lhumerus -2.94696 -22.9982 78.7915
lradius 138.666
lwrist -1.68384
lhand -29.0695 0.112389
lfingers 7.12502
lthumb -2.41885 30.0784
rfemur -65.2501 -6.65666 17.749
rtibia 65.8611
rfoot -13.4136 -13.8667
rtoes 3.69013
lfemur 9.91043 -12.2116 -20.8059
ltibia 21.1903
lfoot -39.4609 34.3528
ltoes -13.3843
1375
root 1.84048 13.8626 -0.692304 16.829 2.24948 2.21335
lowerback -5.80339 -3.86997 -4.88832
upperback -9.17621 -5.02136 2.2725
thorax -5.74381 -2.1381 5.04943
lowerneck -10.9905 8.53604 13.9069
upperneck 32.293 14.4114 -14.9996
head 15.4057 6.20715 -6.25161
rclavicle -2.05991e-014 -1.55052e-014
rhumerus 6.24201 17.0216 -63.2337
rradius 133.485
rwrist -18.1094
rhand -29.5464 6.47216
rfingers 7.12502
rthumb -2.87944 -23.4882
lclavicle -2.05991e-014 -1.55052e-014
lhumerus -3.65592 -22.339 78.5167
lradius 138.868
lwrist -1.80556
lhand -29.2037 0.109001
lfingers 7.12502
lthumb -2.54847 30.0735
rfemur -64.6472 -6.03744 18.0891
rtibia 66.3129
rfoot -14.1947 -14.1649
rtoes 3.79026
lfemur 10.5657 -11.5515 -20.4626
ltibia 21.5915
lfoot -38.6126 33.8857
ltoes -13.9856
1376
root 1.77382 13.8556 -0.573928 16.4106 1.82956 2.06846
lowerback -5.91218 -4.04872 -4.60835
upperback -9.23293 -5.26078 2.32245
thorax -5.731 -2.27463 4.93362
lowerneck -10.5687 8.89958 14.182
upperneck 32.1915 15.2014 -15.6926
head 15.5488 6.52444 -6.46573
rclavicle -3.63279e-014 2.42517e-014
rhumerus 6.104 17.1284 -62.8962
rradius 133.224
rwrist -18.0653
rhand -29.3801 6.23994
rfingers 7.12502
rthumb -2.71882 -23.7225
lclavicle -3.63279e-014 2.42517e-014
lhumerus -4.45596 -21.6242 78.2127
lradius 139.067
lwrist -1.93241
lhand -29.3206 0.117056
lfingers 7.12502
lthumb -2.66135 30.0802
rfemur -63.9765 -5.44623 18.4062
rtibia 66.7872
rfoot -14.8975 -14.3872
rtoes 3.87253
lfemur 11.155 -10.8596 -20.0934
ltibia 22.2056
lfoot -37.5894 33.3865
ltoes -14.5104
1377
root 1.70594 13.8539 -0.454688 15.9263 1.40964 1.95128
lowerback -5.96065 -4.22422 -4.32445
upperback -9.27667 -5.49992 2.34611
thorax -5.7431 -2.4115 4.79209
lowerneck -10.1222 9.26142 14.4411
upperneck 32.0793 15.9963 -16.378
head 15.6942 6.84639 -6.67361
rclavicle 2.66371e-014 -1.03368e-014
rhumerus 5.96147 17.3075 -62.6006
rradius 132.901
rwrist -17.9487
rhand -29.2934 6.0497
rfingers 7.12502
rthumb -2.63509 -23.9138
lclavicle 2.66371e-014 -1.03368e-014
lhumerus -5.3508 -20.8581 77.8902
lradius 139.25
lwrist -2.07396
lhand -29.4379 0.0999693
lfingers 7.12502
lthumb -2.77466 30.0617
rfemur -63.2129 -4.87304 18.6889
rtibia 67.2383
rfoot -15.5358 -14.5486
rtoes 3.99989
lfemur 11.6357 -10.1372 -19.7179
ltibia 23.0929
lfoot -36.3439 32.9104
ltoes -14.9582
1378
root 1.63692 13.8578 -0.334897 15.3762 0.974118 1.85686
lowerback -5.95786 -4.38686 -4.03949
upperback -9.30911 -5.72512 2.3396
thorax -5.77881 -2.54182 4.62286
lowerneck -9.63442 9.61229 14.6878
upperneck 31.9616 16.7798 -17.0469
head 15.8353 7.16843 -6.87601
rclavicle -7.15625e-015 -4.37326e-015
rhumerus 5.8039 17.5598 -62.3607
rradius 132.508
rwrist -17.7933
rhand -29.2695 5.85802
rfingers 7.12502
rthumb -2.612 -24.1057
lclavicle -7.15625e-015 -4.37326e-015
lhumerus -6.34736 -20.0623 77.5628
lradius 139.417
lwrist -2.19218
lhand -29.5635 0.0965356
lfingers 7.12502
lthumb -2.89589 30.0566
rfemur -62.3156 -4.30223 18.9512
rtibia 67.6027
rfoot -16.137 -14.6868
rtoes 4.1351
lfemur 11.9708 -9.38576 -19.3364
ltibia 24.304
lfoot -34.8469 32.4992
ltoes -15.2605
1379
root 1.5668 13.8685 -0.214902 14.7739 0.517228 1.76047
lowerback -5.91615 -4.53298 -3.73633
upperback -9.32972 -5.93043 2.31307
thorax -5.83186 -2.66359 4.42672
lowerneck -9.11728 9.95316 14.9157
upperneck 31.8422 17.5508 -17.6919
head 15.974 7.48951 -7.06859
rclavicle 1.27222e-014 -2.34566e-014
rhumerus 5.63902 17.8932 -62.176
rradius 132.054
rwrist -17.6211
rhand -29.3108 5.65614
rfingers 7.12502
rthumb -2.65192 -24.3071
lclavicle 1.27222e-014 -2.34566e-014
lhumerus -7.43772 -19.2485 77.2335
lradius 139.564
lwrist -2.28806
lhand -29.7167 0.0716106
lfingers 7.12502
lthumb -3.04388 30.0296
rfemur -61.2566 -3.71482 19.2284
rtibia 67.8188
rfoot -16.7063 -14.844
rtoes 4.23196
lfemur 12.1156 -8.61167 -18.9239
ltibia 25.8671
lfoot -33.0433 32.2177
ltoes -15.2055
1380
root 1.49603 13.8875 -0.0950705 14.1398 0.0445629 1.62924
lowerback -5.85069 -4.65678 -3.37958
upperback -9.34496 -6.1074 2.27726
thorax -5.9038 -2.77433 4.19514
lowerneck -8.57326 10.2785 15.1168
upperneck 31.7304 18.3009 -18.3067
head 16.1101 7.80546 -7.24938
rclavicle -3.28989e-014 1.35174e-014
rhumerus 5.4766 18.311 -62.0408
rradius 131.544
rwrist -17.4689
rhand -29.4163 5.46111
rfingers 7.12502
rthumb -2.75374 -24.5009
lclavicle -3.28989e-014 1.35174e-014
lhumerus -8.62144 -18.4444 76.9212
lradius 139.68
lwrist -2.37368
lhand -29.9189 0.0401874
lfingers 7.12502
lthumb -3.23917 29.9953
rfemur -60.0303 -3.10059 19.5581
rtibia 67.8434
rfoot -17.2366 -15.0399
rtoes 4.28574
lfemur 12.0255 -7.82236 -18.442
ltibia 27.7959
lfoot -30.8736 32.1088
ltoes -14.4784
1381
root 1.42544 13.9151 0.0240284 13.4866 -0.438885 1.44103
lowerback -5.76508 -4.75289 -2.94125
upperback -9.35817 -6.24849 2.23834
thorax -5.99914 -2.87179 3.91956
lowerneck -8.00771 10.5855 15.2898
upperneck 31.633 19.0239 -18.8854
head 16.2439 8.11358 -7.41726
rclavicle 4.78077e-014 -1.55052e-014
rhumerus 5.333 18.8103 -61.9582
rradius 130.985
rwrist -17.381
rhand -29.5343 5.28093
rfingers 7.12502
rthumb -2.86773 -24.6795
lclavicle 4.78077e-014 -1.55052e-014
lhumerus -9.87296 -17.6697 76.6326
lradius 139.763
lwrist -2.44365
lhand -30.1715 0.0310396
lfingers 7.12502
lthumb -3.48312 29.9823
rfemur -58.6552 -2.45048 19.9568
rtibia 67.6676
rfoot -17.7049 -15.2726
rtoes 4.35395
lfemur 11.6762 -7.01585 -17.8666
ltibia 30.092
lfoot -28.2488 32.1944
ltoes -12.953
1382
root 1.35612 13.9496 0.141185 12.8293 -0.925793 1.19786
lowerback -5.66904 -4.82264 -2.41816
upperback -9.36271 -6.35455 2.19905
thorax -6.1053 -2.95715 3.59983
lowerneck -7.45056 10.8767 15.4297
upperneck 31.5534 19.7208 -19.4266
head 16.3823 8.41156 -7.56951
rclavicle 1.05853e-014 7.15625e-015
rhumerus 5.25106 19.3745 -61.913
rradius 130.39
rwrist -17.4082
rhand -29.6389 5.14201
rfingers 7.12502
rthumb -2.96872 -24.8171
lclavicle 1.05853e-014 7.15625e-015
lhumerus -11.1507 -16.9195 76.3696
lradius 139.816
lwrist -2.48591
lhand -30.4406 0.0292896
lfingers 7.12502
lthumb -3.74296 29.9762
rfemur -57.1726 -1.7716 20.4161
rtibia 67.3119
rfoot -18.0977 -15.5318
rtoes 4.44754
lfemur 11.0518 -6.18897 -17.2004
ltibia 32.7506
lfoot -25.0618 32.4436
ltoes -10.6047
1383
root 1.28923 13.9881 0.25537 12.1755 -1.41863 0.917988
lowerback -5.5671 -4.86379 -1.82329
upperback -9.35606 -6.42205 2.15547
thorax -6.21627 -3.02827 3.23842
lowerneck -6.91742 11.1517 15.5378
upperneck 31.4951 20.3908 -19.9338
head 16.53 8.6975 -7.70787
rclavicle -1.5207e-014 -1.74931e-014
rhumerus 5.24602 19.9812 -61.8942
rradius 129.781
rwrist -17.58
rhand -29.7072 5.04545
rfingers 7.12502
rthumb -3.03472 -24.9127
lclavicle -1.5207e-014 -1.74931e-014
lhumerus -12.4297 -16.2057 76.1437
lradius 139.855
lwrist -2.50879
lhand -30.7039 0.0533144
lfingers 7.12502
lthumb -3.99717 29.9956
rfemur -55.6228 -1.07336 20.9118
rtibia 66.8132
rfoot -18.4199 -15.8049
rtoes 4.5698
lfemur 10.1561 -5.34263 -16.4754
ltibia 35.759
lfoot -21.2672 32.6537
ltoes -7.49624
1384
root 1.22545 14.0286 0.365595 11.5317 -1.91994 0.619355
lowerback -5.46551 -4.87592 -1.17632
upperback -9.33087 -6.45004 2.1037
thorax -6.31846 -3.08395 2.84055
lowerneck -6.42406 11.4125 15.6156
upperneck 31.4527 21.0329 -20.4074
head 16.6867 8.96979 -7.83133
rclavicle -6.17226e-014 1.03368e-014
rhumerus 5.33781 20.598 -61.8992
rradius 129.186
rwrist -17.9222
rhand -29.6932 4.9468
rfingers 7.12502
rthumb -3.02116 -25.0115
lclavicle -6.17226e-014 1.03368e-014
lhumerus -13.6655 -15.5138 75.9473
lradius 139.887
lwrist -2.50732
lhand -30.9182 0.0887137
lfingers 7.12502
lthumb -4.20416 30.027
rfemur -54.0402 -0.365308 21.4232
rtibia 66.206
rfoot -18.6745 -16.079
rtoes 4.69601
lfemur 8.99446 -4.48011 -15.7207
ltibia 39.0982
lfoot -16.9187 32.4882
ltoes -3.92333
1385
root 1.16515 14.0707 0.471556 10.9046 -2.4288 0.299181
lowerback -5.36853 -4.85831 -0.477787
upperback -9.28274 -6.43744 2.04448
thorax -6.40365 -3.12363 2.40614
lowerneck -5.98641 11.6586 15.6685
upperneck 31.4243 21.6436 -20.8485
head 16.8539 9.22588 -7.94109
rclavicle -2.78299e-015 -3.18055e-015
rhumerus 5.52135 21.2106 -61.9205
rradius 128.613
rwrist -18.3899
rhand -29.6677 4.89692
rfingers 7.12502
rthumb -2.99653 -25.0618
lclavicle -2.78299e-015 -3.18055e-015
lhumerus -14.8291 -14.8588 75.7772
lradius 139.917
lwrist -2.52814
lhand -31.1091 0.0129763
lfingers 7.12502
lthumb -4.38845 29.9475
rfemur -52.4418 0.341479 21.9558
rtibia 65.5104
rfoot -18.8743 -16.3402
rtoes 4.82559
lfemur 7.57527 -3.61377 -14.9424
ltibia 42.7383
lfoot -12.2283 31.6169
ltoes -0.544049
1386
root 1.10849 14.1148 0.572871 10.3083 -2.93918 -0.0402857
lowerback -5.28394 -4.80845 0.271136
upperback -9.21975 -6.38119 1.97688
thorax -6.47504 -3.14546 1.93419
lowerneck -5.58787 11.8843 15.6965
upperneck 31.407 22.2118 -21.2522
head 17.0198 9.46248 -8.03741
rclavicle -1.87852e-014 0
rhumerus 5.77063 21.7945 -61.957
rradius 128.095
rwrist -18.9529
rhand -29.5839 4.86277
rfingers 7.12502
rthumb -2.91564 -25.097
lclavicle -1.87852e-014 0
lhumerus -15.9065 -14.2397 75.6375
lradius 139.952
lwrist -2.55577
lhand -31.2429 -0.0402272
lfingers 7.12502
lthumb -4.51772 29.8916
rfemur -50.8504 1.031 22.5093
rtibia 64.7375
rfoot -19.022 -16.5754
rtoes 4.95849
lfemur 5.89819 -2.75842 -14.1485
ltibia 46.6402
lfoot -7.56809 29.7813
ltoes 1.81641
